<svg xmlns="http://www.w3.org/2000/svg" xmlns:xlink="http://www.w3.org/1999/xlink" viewBox="0 0 548.41 541.93"><defs><style>.cls-1{fill:url(#linear-gradient);}.cls-2{fill:url(#linear-gradient-2);}</style><linearGradient id="linear-gradient" x1="-5848.9" y1="1104.56" x2="-5848.9" y2="1108.73" gradientTransform="matrix(108.62, 0, 0, -125.82, 635639.18, 139522.36)" gradientUnits="userSpaceOnUse"><stop offset="0" stop-color="#b121e3"/><stop offset="1" stop-color="#f690e4"/></linearGradient><linearGradient id="linear-gradient-2" x1="9904.5" y1="-6733" x2="9943.96" y2="-4044.49" gradientTransform="matrix(0.19, 0, 0, -0.19, -1639.2, -736.08)" gradientUnits="userSpaceOnUse"><stop offset="0" stop-color="#007cff"/><stop offset="1" stop-color="#09ffff"/></linearGradient></defs><g id="Layer_2" data-name="Layer 2"><g id="Layer_1-2" data-name="Layer 1"><path class="cls-1" d="M513.15,477.49l.23.36c1-.08,1.94-.13,2.92-.13a31.94,31.94,0,0,1,22.7,9.41v0a32.07,32.07,0,1,1-45.36,45.36h0A32.07,32.07,0,0,1,490.31,491L336.25,246a13.28,13.28,0,0,1,.89-15.39L486.7,44.29H334.85L202.75,218.21a13.24,13.24,0,0,1-23.79-8h-.07V44.29H125.81V441.18a15,15,0,1,1-30,0V33.68a15.34,15.34,0,0,1,.29-3,13.31,13.31,0,0,1,13.31-13H192.2A13.31,13.31,0,0,1,205.51,31v139.8L317,24a13.32,13.32,0,0,1,11.34-6.33H514.39v0a13.27,13.27,0,0,1,10.34,21.6l-161,200.58,149.4,237.61ZM524,502.16l0,0a10.82,10.82,0,0,0-15.29,15.3l0,0A10.84,10.84,0,0,0,524,502.18Z"/><path class="cls-2" d="M45.43,61.33V496.52H178.89V407.9a13.32,13.32,0,0,1,3.78-9.3L223,349.54a13.24,13.24,0,0,1,21.66,1.69l89.67,145.29h59.09L238.72,258.43a15,15,0,0,1,.09-18.28L368.67,73.06a15,15,0,1,1,23.66,18.4L269,250.15,430.9,499.34a15,15,0,0,1,1.22,14,13.32,13.32,0,0,1-12.84,9.77H326.94v-.06a13.22,13.22,0,0,1-11.27-6.28l-84-136.08-26.2,31.87v97.23a13.3,13.3,0,0,1-13.31,13.31H32.1a13.32,13.32,0,0,1-13.31-13.31V61.31A32.13,32.13,0,0,1,9.44,54.8h0a32,32,0,0,1,0-45.36v0a32.07,32.07,0,0,1,45.39,0v0a32,32,0,0,1,0,45.36h0a32.18,32.18,0,0,1-9.36,6.51ZM39.8,24.45l0,0a10.85,10.85,0,0,0-15.31,0v0a10.88,10.88,0,0,0,0,15.32l0,0a10.9,10.9,0,0,0,15.33,0l0,0a10.89,10.89,0,0,0,0-15.32Z"/></g></g></svg>